# AST/ASF file generated using VICON BodyLanguage
# -----------------------------------------------
:version 1.10
:name VICON
:units
  mass 1.0
  length 0.45
  angle deg
:documentation
   .ast/.asf automatically generated from VICON data using
   VICON BodyBuilder and BodyLanguage model FoxedUp or BRILLIANT.MOD
:root
   order TX TY TZ RX RY RZ
   axis XYZ
   position 0 0 0  
   orientation 0 0 0 
:bonedata
  begin
     id 1 
     name lhipjoint
     direction 0.671379 -0.66392 0.329334 
     length 2.38647 
     axis 0 0 0  XYZ
  end
  begin
     id 2 
     name lfemur
     direction 0.34202 -0.939693 0  
     length 6.48179  
     axis 0 0 20  XYZ
    dof rx ry rz
    limits (-160.0 20.0)
           (-70.0 70.0)
           (-60.0 70.0)
  end
  begin
     id 3 
     name ltibia
     direction 0.34202 -0.939693 0   
     length 6.86524   
     axis 0 0 20   XYZ
    dof rx
    limits (-10.0 170.0)
  end
  begin
     id 4 
     name lfoot
     direction 0.204886 -0.562919 0.800715   
     length 1.73031   
     axis -90 7.62852e-016 20   XYZ
    dof rx rz
    limits (-45.0 90.0)
           (-70.0 20.0)
  end
  begin
     id 5 
     name ltoes
     direction 1.53548e-011 -4.21841e-011 1   
     length 0.828161   
     axis -90 7.62852e-016 20   XYZ
    dof rx
    limits (-90.0 20.0)
  end
  begin
     id 6 
     name rhipjoint
     direction -0.662732 -0.670855 0.332775   
     length 2.3618  
     axis 0 0 0  XYZ 
  end
  begin
     id 7 
     name rfemur
     direction -0.34202 -0.939693 0   
     length 6.3025   
     axis 0 0 -20   XYZ
    dof rx ry rz
    limits (-160.0 20.0)
           (-70.0 70.0)
           (-70.0 60.0)
  end
  begin
     id 8 
     name rtibia
     direction -0.34202 -0.939693 0   
     length 6.8732   
     axis 0 0 -20   XYZ
    dof rx
    limits (-10.0 170.0)
 end
 begin
     id 9 
     name rfoot
     direction -0.173856 -0.477665 0.861168   
     length 1.54784  
     axis -90 -7.62852e-016 -20   XYZ
    dof rx rz
    limits (-45.0 90.0)
           (-20.0 70.0)
  end
  begin
     id 10 
     name rtoes
     direction -1.53562e-011 -4.21802e-011 1   
     length 0.759618   
     axis -90 -7.62852e-016 -20   XYZ
    dof rx
    limits (-90.0 20.0)
  end
  begin
     id 11 
     name lowerback
     direction -0.0278357 0.999497 -0.0151789   
     length 1.97203   
     axis 0 0 0   XYZ
    dof rx ry rz
    limits (-20.0 45.0)
           (-30.0 30.0)
           (-30.0 30.0)
  end
  begin
     id 12 
     name upperback
     direction -0.00360622 0.997542 0.0699804   
     length 1.94709   
     axis 0 0 0   XYZ
    dof rx ry rz
    limits (-20.0 45.0)
           (-30.0 30.0)
           (-30.0 30.0)
  end
  begin
     id 13 
     name thorax
     direction 0.00907706 0.997048 0.0762461   
     length 1.95722   
     axis 0 0 0   XYZ
    dof rx ry rz
    limits (-20.0 45.0)
           (-30.0 30.0)
           (-30.0 30.0)
  end
  begin
     id 14 
     name lowerneck
     direction -0.0481835 0.99872 -0.0153927   
     length 1.63078   
     axis 0 0 0   XYZ
    dof rx ry rz
    limits (-20.0 45.0)
           (-30.0 30.0)
           (-30.0 30.0)
  end
  begin
     id 15 
     name upperneck
     direction 0.0859716 0.979226 -0.183644   
     length 1.62591   
     axis 0 0 0   XYZ
    dof rx ry rz
    limits (-20.0 45.0)
           (-30.0 30.0)
           (-30.0 30.0)
  end
  begin
     id 16
     name head
     direction 0.0324821 0.997629 -0.0606773  
     length 1.64811  
     axis 0 0 0   XYZ
    dof rx ry rz
    limits (-20.0 45.0)
           (-30.0 30.0)
           (-30.0 30.0)
  end
  begin
     id 17 
     name lclavicle
     direction 0.939609 0.311019 0.142835  
     length 3.70647  
     axis 0 0 0   XYZ
    dof ry rz
    limits (-20.0 10.0)
           (0.0 20.0)
  end
  begin
     id 18 
     name lhumerus
     direction 1 -4.48963e-011 -1.59838e-027   
     length 4.59207   
     axis 180 -30 -90   XYZ
    dof rx ry rz
    limits (-60.0 90.0)
           (-90.0 90.0)
           (-90.0 90.0)
  end
  begin
     id 19
     name lradius
     direction 1 -4.48957e-011 -1.3483e-026   
     length 2.98109   
     axis 180 -30 -90   XYZ
    dof rx
    limits (-10.0 170.0)
  end
  begin
     id 20
     name lwrist
     direction 1 -4.48954e-011 -3.11579e-026   
     length 1.49055   
     axis 2.00652e-014 90 90   XYZ
    dof ry
    limits (-180.0 0.0)
 end
  begin
     id 21 
     name lhand
     direction 1 -4.4911e-011 -6.23158e-026   
     length 0.480203   
     axis 3.97628e-014 90 90   XYZ
    dof rx rz
    limits (-90.0 90.0)
           (-45.0 45.0)
  end
  begin
     id 22 
     name lfingers
     direction 1 -4.48893e-011 -1.24632e-025   
     length 0.387152   
     axis 7.95256e-014 90 90   XYZ
    dof rx
    limits (0.0 90.0)
  end
  begin
     id 23
     name lthumb
     direction 0.707107 -6.35013e-011 0.707107   
     length 0.555875   
     axis -90 45 2.85299e-015   XYZ
    dof rx rz
    limits (-45.0 45.0)
           (-45.0 45.0)
  end
  begin
     id 24 
     name rclavicle
     direction -0.950396 0.30392 0.0661859   
     length 3.70894  
     axis 0 0 0   XYZ 
    dof ry rz
    limits (-10.0 20.0)
           (-20.0 0.0)
  end
  begin
     id 25 
     name rhumerus
     direction -1 -4.48957e-011 -2.96677e-027  
     length 4.76508   
     axis 180 30 90   XYZ
    dof rx ry rz
    limits (-90.0 60.0)
           (-90.0 90.0)
           (-90.0 90.0)
  end
  begin
     id 26 
     name rradius
     direction -1 -4.48974e-011 -1.44501e-026   
     length 2.78902   
     axis 180 30 90   XYZ
    dof rx
    limits (-10.0 170.0)
  end
  begin
     id 27 
     name rwrist
     direction -1 -4.48978e-011 -3.11579e-026   
     length 1.39451   
     axis 2.00652e-014 -90 -90   XYZ
    dof ry
    limits (-180.0 0.0)
  end
  begin
     id 28
     name rhand
     direction -1 -4.48956e-011 -6.23158e-026   
     length 0.721303   
     axis 3.97628e-014 -90 -90   XYZ
    dof rx rz
    limits (-90.0 90.0)
           (-45.0 45.0)
  end
  begin
     id 29
     name rfingers
     direction -1 -4.4899e-011 -1.24632e-025   
     length 0.581533   
     axis 7.95256e-014 -90 -90   XYZ
    dof rx
    limits (0.0 90.0)
  end
  begin
     id 30
     name rthumb
     direction -0.707107 -6.34911e-011 0.707107   
     length 0.834968   
     axis -90 -45 -2.85299e-015   XYZ
    dof rx rz
    limits (-45.0 45.0)
           (-45.0 45.0)
  end
:hierarchy
  begin
    root lhipjoint rhipjoint lowerback
    lhipjoint lfemur
    lfemur ltibia
    ltibia lfoot
    lfoot ltoes
    rhipjoint rfemur
    rfemur rtibia
    rtibia rfoot
    rfoot rtoes
    lowerback upperback
    upperback thorax
    thorax lowerneck lclavicle rclavicle
    lowerneck upperneck
    upperneck head
    lclavicle lhumerus
    lhumerus lradius
    lradius lwrist
    lwrist lhand lthumb
    lhand lfingers
    rclavicle rhumerus
    rhumerus rradius
    rradius rwrist
    rwrist rhand rthumb
    rhand rfingers
  end

#!OML:ASF I:\salsa\salsa 7_09\Patient 1\Session 1\dancerfemale.ASF
:FULLY-SPECIFIED
:DEGREES
702
root 15.9017 15.6423 0.966162 546.833 336.842 -529.78
lowerback 4.88795 -5.67312 6.39996
upperback -5.70317 -7.13836 3.07585
thorax -9.1817 -3.90407 0.678674
lowerneck -2.01494 12.2287 6.0416
upperneck 14.231 15.8825 -1.73315
head 5.25722 7.7949 -0.605889
rclavicle 7.27769e-014 -2.5842e-014
rhumerus -77.1806 -38.9678 -56.7186
rradius 72.947
rwrist -12.7278
rhand -5.52275 34.8415
rfingers 7.12502
rthumb 20.2911 5.88149
lclavicle 7.27769e-014 -2.5842e-014
lhumerus -15.9132 36.8112 58.0515
lradius 67.5102
lwrist -26.8202
lhand -25.6697 59.7732
lfingers 7.12502
lthumb 0.864745 89.7512
rfemur -9.90404 -11.1948 25.2928
rtibia 29.2597
rfoot -20.708 -3.68202
rtoes -28.631
lfemur -59.1967 33.3003 -22.6353
ltibia 60.4198
lfoot -10.9279 22.7534
ltoes -7.67193
703
root 15.6711 15.6683 0.898515 546.414 333.943 -529.943
lowerback 4.34018 -5.07052 7.08695
upperback -5.38441 -6.31287 3.12624
thorax -8.54615 -3.52904 0.155341
lowerneck -2.0257 12.1491 5.20825
upperneck 12.9981 15.8975 -1.65844
head 4.8 7.8186 -0.51162
rclavicle 4.99353e-014 1.23246e-014
rhumerus -77.4649 -39.1864 -55.2459
rradius 73.6131
rwrist -16.7134
rhand -3.04935 33.6089
rfingers 7.12502
rthumb 22.6666 4.92004
lclavicle 4.99353e-014 1.23246e-014
lhumerus -13.0962 35.7637 61.0448
lradius 67.5343
lwrist -26.4692
lhand -25.4577 60.6674
lfingers 7.12502
lthumb 1.06949 269.355
rfemur -9.21326 -9.99345 24.6953
rtibia 30.1897
rfoot -19.501 -6.55859
rtoes -30.0769
lfemur -57.534 30.7065 -23.6033
ltibia 59.9182
lfoot -14.3671 21.643
ltoes -10.0401
704
root 15.4257 15.6899 0.838613 546.273 331.016 -530.31
lowerback 4.16555 -4.57602 7.28548
upperback -5.56212 -5.6437 3.45175
thorax -8.58297 -3.21925 0.297542
lowerneck -2.56771 12.3737 3.85593
upperneck 13.3967 16.1817 -0.676114
head 4.82776 7.95066 0.0211429
rclavicle -1.02595e-013 -4.95968e-014
rhumerus -77.7944 -37.9206 -53.9281
rradius 73.2772
rwrist -13.1326
rhand -5.61916 34.6511
rfingers 7.12502
rthumb 20.1984 5.6812
lclavicle -1.02595e-013 -4.95968e-014
lhumerus -11.5703 36.4543 64.0178
lradius 68.2762
lwrist -28.8588
lhand -22.0359 59.7062
lfingers 7.12502
lthumb 4.37407 89.641
rfemur -8.98441 -8.87381 24.0158
rtibia 31.4627
rfoot -17.6372 -9.36339
rtoes -30.6531
lfemur -54.9946 26.9953 -23.7331
ltibia 58.2194
lfoot -16.3176 21.9585
ltoes -8.86026
705
root 15.1728 15.7286 0.78252 546.124 328.147 -530.922
lowerback 4.06593 -4.03276 7.33343
upperback -5.66863 -4.91106 3.58079
thorax -8.58861 -2.8663 0.30951
lowerneck -1.22879 11.9273 3.51298
upperneck 11.3555 15.7636 -1.62194
head 4.43058 7.73898 -0.424435
rclavicle 8.52802e-014 -2.22639e-014
rhumerus -78.5529 -36.9746 -52.0877
rradius 72.4802
rwrist -8.45476
rhand -7.45931 36.7962
rfingers 7.12502
rthumb 18.429 7.64922
lclavicle 8.52802e-014 -2.22639e-014
lhumerus -10.0068 36.759 66.6729
lradius 69.4099
lwrist -33.2103
lhand -12.9654 58.9796
lfingers 7.12502
lthumb 13.1265 88.5465
rfemur -9.10056 -8.10745 23.1444
rtibia 33.4675
rfoot -14.9492 -12.094
rtoes -28.7624
lfemur -51.9955 23.1521 -24.0023
ltibia 55.9477
lfoot -17.6783 22.1152
ltoes -7.87781
706
root 14.9019 15.7799 0.716909 545.816 325.348 -531.671
lowerback 3.9875 -3.45508 7.40586
upperback -5.66378 -4.12859 3.52421
thorax -8.50038 -2.48567 0.101671
lowerneck -1.08418 11.5456 2.80853
upperneck 11.0185 15.3022 -1.61069
head 4.19589 7.49839 -0.364387
rclavicle -1.54586e-014 1.51076e-014
rhumerus -79.2835 -36.0986 -50.5952
rradius 71.5062
rwrist -5.54012
rhand -9.40721 38.2765
rfingers 7.12502
rthumb 16.5544 8.96263
lclavicle -1.54586e-014 1.51076e-014
lhumerus -8.41768 36.8712 68.9907
lradius 70.9433
lwrist -39.7515
lhand 3.53213 58.3814
lfingers 7.12502
lthumb 28.9689 86.1505
rfemur -9.34585 -8.2207 22.0035
rtibia 36.33
rfoot -11.4074 -13.9992
rtoes -23.3573
lfemur -48.6117 19.53 -24.3628
ltibia 53.3802
lfoot -18.7965 22.3646
ltoes -5.71839
707
root 14.6489 15.8481 0.670628 545.822 322.585 -532.894
lowerback 4.25849 -2.88749 6.97595
upperback -5.71437 -3.35669 3.32018
thorax -8.64798 -2.08198 0.0424138
lowerneck -0.796991 10.9334 1.96709
upperneck 10.5724 14.5141 -1.46372
head 3.86927 7.09882 -0.266269
rclavicle 6.02815e-014 2.38542e-015
rhumerus -80.1878 -35.8525 -49.0078
rradius 70.7075
rwrist -5.23931
rhand -10.2376 38.9541
rfingers 7.12502
rthumb 15.7549 9.57535
lclavicle 6.02815e-014 2.38542e-015
lhumerus -6.871 34.2183 71.2113
lradius 70.8098
lwrist -36.1983
lhand -5.07957 59.7616
lfingers 7.12502
lthumb 20.717 88.6758
rfemur -10.7921 -7.62556 20.7848
rtibia 40.5291
rfoot -6.78681 -16.6575
rtoes -16.8423
lfemur -45.5485 16.1039 -25.3426
ltibia 50.8497
lfoot -19.2947 22.949
ltoes -3.67563
708
root 14.4106 15.9394 0.63841 546.469 320.124 -535.034
lowerback 4.72285 -2.32736 5.87789
upperback -5.7438 -2.63864 2.86211
thorax -8.86823 -1.66282 0.093267
lowerneck -0.608073 10.3709 0.817849
upperneck 10.2256 13.7598 -0.903574
head 3.55049 6.71782 0.0248653
rclavicle 5.97379e-014 3.57812e-015
rhumerus -80.4574 -35.4375 -48.5604
rradius 70.1988
rwrist -7.80098
rhand -10.5634 39.0847
rfingers 7.12502
rthumb 15.441 9.6814
lclavicle 5.97379e-014 3.57812e-015
lhumerus -5.59379 31.0812 73.5731
lradius 70.4946
lwrist -28.2863
lhand -22.579 60.8969
lfingers 7.12502
lthumb 3.84966 -90.8419
rfemur -12.991 -6.23483 18.9694
rtibia 45.8326
rfoot -1.75051 -19.1552
rtoes -7.46316
lfemur -42.5119 13.2229 -27.2934
ltibia 48.2897
lfoot -19.2656 23.5845
ltoes -2.38545
709
root 14.1991 15.925 0.600426 547.657 317.984 -538.28
lowerback 5.30086 -1.74419 4.14365
upperback -5.57067 -1.9697 2.04794
thorax -8.9377 -1.22456 0.11721
lowerneck -0.869146 9.89877 -0.816828
upperneck 10.1628 13.093 0.360139
head 3.34578 6.38336 0.65198
rclavicle -2.12863e-014 9.54166e-015
rhumerus -80.6634 -34.9082 -48.6952
rradius 70.0823
rwrist -10.5811
rhand -9.58953 38.5469
rfingers 7.12502
rthumb 16.3789 9.21842
lclavicle -2.12863e-014 9.54166e-015
lhumerus -4.18595 29.472 74.8202
lradius 71.0465
lwrist -28.5967
lhand -21.2015 61.2687
lfingers 7.12502
lthumb 5.17977 -91.1854
rfemur -15.5668 -5.56141 16.1132
rtibia 52.0615
rfoot 2.45983 -19.8878
rtoes 1.79156
lfemur -39.5063 10.7952 -30.1094
ltibia 46.1944
lfoot -19.5165 24.1195
ltoes -0.136191
710
root 14.0979 15.8748 0.607864 550.224 313.832 -541.128
lowerback 5.46237 -1.66834 2.83109
upperback -5.94945 -2.01408 1.39419
thorax -9.41801 -1.18564 0.1794
lowerneck 0.167576 9.03693 -1.47967
upperneck 8.78875 11.9385 0.485645
head 2.63833 5.82725 0.650485
rclavicle 1.59259e-013 3.33958e-014
rhumerus -80.9837 -34.7961 -49.0388
rradius 70.0453
rwrist -12.7428
rhand -8.46726 37.955
rfingers 7.12502
rthumb 17.4592 8.71909
lclavicle 1.59259e-013 3.33958e-014
lhumerus -2.2499 27.6709 76.0782
lradius 71.5286
lwrist -29.7819
lhand -18.2621 62.0385
lfingers 7.12502
lthumb 8.01738 -91.8664
rfemur -20.3211 -7.02792 14.3876
rtibia 58.7791
rfoot 7.75418 -20.0887
rtoes 9.20453
lfemur -38.8281 6.97379 -32.5573
ltibia 44.5768
lfoot -18.7724 24.2769
ltoes 2.33514
711
root 13.9431 15.814 0.563736 549.527 311.223 -542.589
lowerback 7.10912 -1.14466 2.49144
upperback -5.3918 -1.27726 0.888567
thorax -9.76913 -0.795183 -0.246243
lowerneck 0.631587 8.20819 -2.04478
upperneck 8.07327 10.8249 0.678542
head 2.28229 5.27955 0.729194
rclavicle 2.47456e-014 -1.27222e-014
rhumerus -81.3707 -34.9156 -49.317
rradius 69.8683
rwrist -13.3836
rhand -7.59367 37.6373
rfingers 7.12502
rthumb 18.2998 8.47807
lclavicle 2.47456e-014 -1.27222e-014
lhumerus -0.484267 26.1238 77.7439
lradius 72.3946
lwrist -31.0539
lhand -16.4735 61.0732
lfingers 7.12502
lthumb 9.74333 -90.8278
rfemur -22.6864 -7.79621 13.3556
rtibia 65.0242
rfoot 12.7004 -16.3217
rtoes 8.26268
lfemur -35.616 5.89374 -33.7588
ltibia 43.5884
lfoot -18.7396 23.7569
ltoes 3.06193
